<svg xmlns="http://www.w3.org/2000/svg" width="128" height="128" viewBox="0 0 16 16" shape-rendering="crispEdges">
  <defs><clipPath id="r"><rect width="16" height="16" rx="2.4"/></clipPath></defs>
  <g clip-path="url(#r)">
    <rect width="16" height="16" fill="#5c94fc"/>
    <rect y="14" width="16" height="2" fill="#58d858"/>
    <rect y="14" width="16" height="0.4" fill="#1c9c1c"/>
    <rect x="6" y="2" width="4" height="1" fill="#e03020"/>
    <rect x="5" y="3" width="6" height="1" fill="#e03020"/>
    <rect x="4" y="4" width="8" height="1" fill="#a02000"/>
    <rect x="5" y="5" width="6" height="3" fill="#fcc0a0"/>
    <rect x="6" y="6" width="1" height="1" fill="#181018"/>
    <rect x="9" y="6" width="1" height="1" fill="#181018"/>
    <rect x="4" y="8" width="1" height="2" fill="#fcc0a0"/>
    <rect x="11" y="8" width="1" height="2" fill="#fcc0a0"/>
    <rect x="5" y="8" width="6" height="3" fill="#2038ec"/>
    <rect x="5" y="11" width="6" height="1" fill="#1020a0"/>
    <rect x="5" y="12" width="2" height="2" fill="#1020a0"/>
    <rect x="9" y="12" width="2" height="2" fill="#1020a0"/>
  </g>
</svg>
